<svg version="1.1" width="92" height="92" viewBox="0 0 92 92" xmlns="http://www.w3.org/2000/svg">
<g fill="none" fill-rule="evenodd" stroke="#f0f0f0" stroke-linecap="square">
<path transform="translate(46 7) translate(-46 -7)" d="m0 7c14.054-8 29.365-8 45.932 0s31.924 8 46.068 0"/>
<path transform="translate(46 3) translate(-46 -3)" d="m0 3c14.054-8 29.365-8 45.932 0s31.924 8 46.068 0"/>
<path transform="translate(46 -1) translate(-46 1)" d="m0-1c14.054-8 29.365-8 45.932 0s31.924 8 46.068 0"/>
<path transform="translate(46 -5) translate(-46 5)" d="m0-5c14.054-8 29.365-8 45.932 0s31.924 8 46.068 0"/>
<path transform="translate(46 35) translate(-46 -35)" d="m0 35c14.054-8 29.365-8 45.932 0s31.924 8 46.068 0"/>
<path transform="translate(46 63) translate(-46 -63)" d="m0 63c14.054-8 29.365-8 45.932 0s31.924 8 46.068 0"/>
<path transform="translate(46 91) translate(-46 -91)" d="m0 91c14.054-8 29.365-8 45.932 0s31.924 8 46.068 0"/>
<path transform="translate(46 11) translate(-46 -11)" d="m0 11c14.054-8 29.365-8 45.932 0s31.924 8 46.068 0"/>
<path transform="translate(46 39) translate(-46 -39)" d="m0 39c14.054-8 29.365-8 45.932 0s31.924 8 46.068 0"/>
<path transform="translate(46 67) translate(-46 -67)" d="m0 67c14.054-8 29.365-8 45.932 0s31.924 8 46.068 0"/>
<path transform="translate(46 95) translate(-46 -95)" d="m0 95c14.054-8 29.365-8 45.932 0s31.924 8 46.068 0"/>
<path transform="translate(46 15) translate(-46 -15)" d="m0 15c14.054-8 29.365-8 45.932 0s31.924 8 46.068 0"/>
<path transform="translate(46 43) translate(-46 -43)" d="m0 43c14.054-8 29.365-8 45.932 0s31.924 8 46.068 0"/>
<path transform="translate(46 71) translate(-46 -71)" d="m0 71c14.054-8 29.365-8 45.932 0s31.924 8 46.068 0"/>
<path transform="translate(46 19) translate(-46 -19)" d="m0 19c14.054-8 29.365-8 45.932 0s31.924 8 46.068 0"/>
<path transform="translate(46 47) translate(-46 -47)" d="m0 47c14.054-8 29.365-8 45.932 0s31.924 8 46.068 0"/>
<path transform="translate(46 75) translate(-46 -75)" d="m0 75c14.054-8 29.365-8 45.932 0s31.924 8 46.068 0"/>
<path transform="translate(46 23) translate(-46 -23)" d="m0 23c14.054-8 29.365-8 45.932 0s31.924 8 46.068 0"/>
<path transform="translate(46 51) translate(-46 -51)" d="m0 51c14.054-8 29.365-8 45.932 0s31.924 8 46.068 0"/>
<path transform="translate(46 79) translate(-46 -79)" d="m0 79c14.054-8 29.365-8 45.932 0s31.924 8 46.068 0"/>
<path transform="translate(46 27) translate(-46 -27)" d="m0 27c14.054-8 29.365-8 45.932 0s31.924 8 46.068 0"/>
<path transform="translate(46 55) translate(-46 -55)" d="m0 55c14.054-8 29.365-8 45.932 0s31.924 8 46.068 0"/>
<path transform="translate(46 83) translate(-46 -83)" d="m0 83c14.054-8 29.365-8 45.932 0s31.924 8 46.068 0"/>
<path transform="translate(46 31) translate(-46 -31)" d="m0 31c14.054-8 29.365-8 45.932 0s31.924 8 46.068 0"/>
<path transform="translate(46 59) translate(-46 -59)" d="m0 59c14.054-8 29.365-8 45.932 0s31.924 8 46.068 0"/>
<path transform="translate(46 87) translate(-46 -87)" d="m0 87c14.054-8 29.365-8 45.932 0s31.924 8 46.068 0"/>
</g>
</svg>
